HIERARCHY
ROOT hip
{
  OFFSET 5.70873 43.8894 -1.52928
  CHANNELS 6 Xposition Yposition Zposition Zrotation Xrotation Yrotation
  JOINT abdomen
  {
    OFFSET 0 5.99393 0.287273
    CHANNELS 6 Xposition Yposition Zposition Zrotation Xrotation Yrotation
    JOINT chest
    {
      OFFSET 0 6.65865 -0.856112
      CHANNELS 6 Xposition Yposition Zposition Zrotation Xrotation Yrotation
      JOINT neck
      {
        OFFSET 0 8.65624 -1.42685
        CHANNELS 6 Xposition Yposition Zposition Zrotation Xrotation Yrotation
        JOINT head
        {
          OFFSET 0 3.80999 -0.190247
          CHANNELS 6 Xposition Yposition Zposition Zrotation Xrotation Yrotation
          End Site
          {
            OFFSET 0 0 0
          }
        }
      }
      JOINT rCollar
      {
        OFFSET -1.4963 7.5744 -1.52136
        CHANNELS 6 Xposition Yposition Zposition Zrotation Xrotation Yrotation
        JOINT rShldr
        {
          OFFSET -5.47506 -0.905672 0.485692
          CHANNELS 6 Xposition Yposition Zposition Zrotation Xrotation Yrotation
          JOINT rForeArm
          {
            OFFSET -11.3069 -0.201091 0.618544
            CHANNELS 6 Xposition Yposition Zposition Zrotation Xrotation Yrotation
            JOINT rHand
            {
              OFFSET -9.61414 -0.254739 3.48553
              CHANNELS 6 Xposition Yposition Zposition Zrotation Xrotation Yrotation
              JOINT rThumb1
              {
                OFFSET 0.176263 -0.07068 1.26622
                CHANNELS 6 Xposition Yposition Zposition Zrotation Xrotation Yrotation
                JOINT rThumb2
                {
                  OFFSET -1.04683 -0.546484 1.82182
                  CHANNELS 6 Xposition Yposition Zposition Zrotation Xrotation Yrotation
                  JOINT rThumb3
                  {
                    OFFSET -0.993472 -0.621916 0.655506
                    CHANNELS 6 Xposition Yposition Zposition Zrotation Xrotation Yrotation
                    End Site
                    {
                      OFFSET -0.996134 -0.66263 0.644615
                    }
                  }
                }
              }
              JOINT rIndex1
              {
                OFFSET -2.64253 0.566363 2.4162
                CHANNELS 6 Xposition Yposition Zposition Zrotation Xrotation Yrotation
                JOINT rIndex2
                {
                  OFFSET -1.39394 -0.635138 0.899356
                  CHANNELS 6 Xposition Yposition Zposition Zrotation Xrotation Yrotation
                  JOINT rIndex3
                  {
                    OFFSET -0.622395 -0.856016 0.402182
                    CHANNELS 6 Xposition Yposition Zposition Zrotation Xrotation Yrotation
                    End Site
                    {
                      OFFSET -0.472476 -0.801802 0.34216
                    }
                  }
                }
              }
              JOINT rMid1
              {
                OFFSET -3.20814 0.514427 1.52547
                CHANNELS 6 Xposition Yposition Zposition Zrotation Xrotation Yrotation
                JOINT rMid2
                {
                  OFFSET -1.56545 -0.497974 0.68919
                  CHANNELS 6 Xposition Yposition Zposition Zrotation Xrotation Yrotation
                  JOINT rMid3
                  {
                    OFFSET -0.679943 -1.17582 0.444246
                    CHANNELS 6 Xposition Yposition Zposition Zrotation Xrotation Yrotation
                    End Site
                    {
                      OFFSET -0.343874 -0.941341 0.267611
                    }
                  }
                }
              }
              JOINT rRing1
              {
                OFFSET -3.47877 0.200518 0.597719
                CHANNELS 6 Xposition Yposition Zposition Zrotation Xrotation Yrotation
                JOINT rRing2
                {
                  OFFSET -1.28208 -0.53155 0.44672
                  CHANNELS 6 Xposition Yposition Zposition Zrotation Xrotation Yrotation
                  JOINT rRing3
                  {
                    OFFSET -0.710288 -0.970167 0.4032
                    CHANNELS 6 Xposition Yposition Zposition Zrotation Xrotation Yrotation
                    End Site
                    {
                      OFFSET -0.403228 -0.950952 0.378354
                    }
                  }
                }
              }
              JOINT rPinky1
              {
                OFFSET -3.42483 -0.278904 -0.240415
                CHANNELS 6 Xposition Yposition Zposition Zrotation Xrotation Yrotation
                JOINT rPinky2
                {
                  OFFSET -1.05787 -0.635999 0.156459
                  CHANNELS 6 Xposition Yposition Zposition Zrotation Xrotation Yrotation
                  JOINT rPinky3
                  {
                    OFFSET -0.42815 -0.754232 0.287187
                    CHANNELS 6 Xposition Yposition Zposition Zrotation Xrotation Yrotation
                    End Site
                    {
                      OFFSET -0.235717 -0.725605 0.279416
                    }
                  }
                }
              }
            }
          }
        }
      }
      JOINT lCollar
      {
        OFFSET 1.4963 7.5744 -1.52136
        CHANNELS 6 Xposition Yposition Zposition Zrotation Xrotation Yrotation
        JOINT lShldr
        {
          OFFSET 5.47506 -0.905672 0.485692
          CHANNELS 6 Xposition Yposition Zposition Zrotation Xrotation Yrotation
          JOINT lForeArm
          {
            OFFSET 11.3069 -0.201091 0.618544
            CHANNELS 6 Xposition Yposition Zposition Zrotation Xrotation Yrotation
            JOINT lHand
            {
              OFFSET 9.61414 -0.254739 3.48553
              CHANNELS 6 Xposition Yposition Zposition Zrotation Xrotation Yrotation
              JOINT lThumb1
              {
                OFFSET -0.176263 -0.07068 1.26622
                CHANNELS 6 Xposition Yposition Zposition Zrotation Xrotation Yrotation
                JOINT lThumb2
                {
                  OFFSET 1.04683 -0.546484 1.82182
                  CHANNELS 6 Xposition Yposition Zposition Zrotation Xrotation Yrotation
                  JOINT lThumb3
                  {
                    OFFSET 0.993472 -0.621916 0.655506
                    CHANNELS 6 Xposition Yposition Zposition Zrotation Xrotation Yrotation
                    End Site
                    {
                      OFFSET 0.996134 -0.66263 0.644615
                    }
                  }
                }
              }
              JOINT lIndex1
              {
                OFFSET 2.64253 0.566363 2.4162
                CHANNELS 6 Xposition Yposition Zposition Zrotation Xrotation Yrotation
                JOINT lIndex2
                {
                  OFFSET 1.39394 -0.635138 0.899356
                  CHANNELS 6 Xposition Yposition Zposition Zrotation Xrotation Yrotation
                  JOINT lIndex3
                  {
                    OFFSET 0.622395 -0.856016 0.402182
                    CHANNELS 6 Xposition Yposition Zposition Zrotation Xrotation Yrotation
                    End Site
                    {
                      OFFSET 0.472476 -0.801802 0.34216
                    }
                  }
                }
              }
              JOINT lMid1
              {
                OFFSET 3.20814 0.514427 1.52547
                CHANNELS 6 Xposition Yposition Zposition Zrotation Xrotation Yrotation
                JOINT lMid2
                {
                  OFFSET 1.56545 -0.497974 0.68919
                  CHANNELS 6 Xposition Yposition Zposition Zrotation Xrotation Yrotation
                  JOINT lMid3
                  {
                    OFFSET 0.679943 -1.17582 0.444246
                    CHANNELS 6 Xposition Yposition Zposition Zrotation Xrotation Yrotation
                    End Site
                    {
                      OFFSET 0.343874 -0.941341 0.267611
                    }
                  }
                }
              }
              JOINT lRing1
              {
                OFFSET 3.47877 0.200518 0.597719
                CHANNELS 6 Xposition Yposition Zposition Zrotation Xrotation Yrotation
                JOINT lRing2
                {
                  OFFSET 1.28208 -0.53155 0.44672
                  CHANNELS 6 Xposition Yposition Zposition Zrotation Xrotation Yrotation
                  JOINT lRing3
                  {
                    OFFSET 0.710288 -0.970167 0.4032
                    CHANNELS 6 Xposition Yposition Zposition Zrotation Xrotation Yrotation
                    End Site
                    {
                      OFFSET 0.403228 -0.950952 0.378354
                    }
                  }
                }
              }
              JOINT lPinky1
              {
                OFFSET 3.42483 -0.278904 -0.240415
                CHANNELS 6 Xposition Yposition Zposition Zrotation Xrotation Yrotation
                JOINT lPinky2
                {
                  OFFSET 1.05787 -0.635999 0.156459
                  CHANNELS 6 Xposition Yposition Zposition Zrotation Xrotation Yrotation
                  JOINT lPinky3
                  {
                    OFFSET 0.42815 -0.754232 0.287187
                    CHANNELS 6 Xposition Yposition Zposition Zrotation Xrotation Yrotation
                    End Site
                    {
                      OFFSET 0.235717 -0.725605 0.279416
                    }
                  }
                }
              }
            }
          }
        }
      }
    }
  }
  JOINT rThigh
  {
    OFFSET -4.17848 -1.02486 0.046356
    CHANNELS 6 Xposition Yposition Zposition Zrotation Xrotation Yrotation
    JOINT rShin
    {
      OFFSET 1.27155 -17.465 -0.237699
      CHANNELS 6 Xposition Yposition Zposition Zrotation Xrotation Yrotation
      JOINT rFoot
      {
        OFFSET 0.529163 -17.3815 -1.19582
        CHANNELS 6 Xposition Yposition Zposition Zrotation Xrotation Yrotation
        JOINT rToe
        {
          OFFSET -0.711591 -4.4863 4.0596
          CHANNELS 6 Xposition Yposition Zposition Zrotation Xrotation Yrotation
          End Site
          {
            OFFSET -0.869915 -1.10655 1.99006
          }
        }
      }
    }
  }
  JOINT lThigh
  {
    OFFSET 4.17848 -1.02486 0.046356
    CHANNELS 6 Xposition Yposition Zposition Zrotation Xrotation Yrotation
    JOINT lShin
    {
      OFFSET -1.27155 -17.465 -0.237699
      CHANNELS 6 Xposition Yposition Zposition Zrotation Xrotation Yrotation
      JOINT lFoot
      {
        OFFSET -0.529163 -17.3815 -1.19582
        CHANNELS 6 Xposition Yposition Zposition Zrotation Xrotation Yrotation
        JOINT lToe
        {
          OFFSET 0.711591 -4.4863 4.0596
          CHANNELS 6 Xposition Yposition Zposition Zrotation Xrotation Yrotation
          End Site
          {
            OFFSET 0.869915 -1.10655 1.99006
          }
        }
      }
    }
  }
}
MOTION
Frames:	4
Frame Time:	0.0333333
24.1494 16.0905 35.0244 44.6782 -65.4294 -127.009 0 5.99393 0.287273 -5.7544 -2.02674 -2.68708 1.77636e-015 6.65865 -0.856112 -11.607 -3.77138 -5.56858 5.32907e-015 8.65624 -1.42685 -3.83975 -2.73974 0.353379 0 3.80999 -0.190247 15.6785 -36.3135 15.7565 -1.4963 7.5744 -1.52136 -37.0236 -0.326454 -2.36607 -5.47506 -0.905672 0.485692 56.08 -2.89581 80.0762 -11.3069 -0.201091 0.618544 1.90738 -19.7592 6.43844 -9.61414 -0.254739 3.48553 -39.3751 -16.8536 -4.83193 0.176263 -0.07068 1.26622 -0.49204 -3.66622 2.2648 -1.04683 -0.546484 1.82182 -0.736838 0.806198 -2.24161 -0.993472 -0.621916 0.655506 -0.818906 0.900109 -2.49704 -2.64253 0.566363 2.4162 -1.82191 -0.336792 -0.0638971 -1.39394 -0.635138 0.899356 -1.75845 -0.472609 0.251925 -0.622395 -0.856016 0.402182 -1.33004 -0.359854 0.197483 -3.20814 0.514427 1.52547 -14.9479 -4.68387 1.51846 -1.56545 -0.497974 0.68919 -10.7171 -3.42588 1.21271 -0.679943 -1.17582 0.444246 -12.2542 -3.93475 1.33385 -3.47877 0.200518 0.597719 -28.5851 -10.1863 -1.90438 -1.28208 -0.53155 0.44672 -13.0589 -4.77653 1.86164 -0.710288 -0.970167 0.4032 -12.1937 -4.44732 1.77189 -3.42483 -0.278904 -0.240415 -41.0413 -11.8398 -9.26863 -1.05787 -0.635999 0.156459 -12.2244 -4.79122 1.56827 -0.42815 -0.754232 0.287187 -12.1033 -4.74189 1.55742 1.4963 7.5744 -1.52136 -3.37594 -2.82795 -4.33096 5.47506 -0.905672 0.485692 -29.1486 -32.1847 -48.9486 11.3069 -0.201091 0.618544 -5.92616 -12.8737 -19.9097 9.61414 -0.254739 3.48553 13.859 4.31171 -8.52232 -0.176263 -0.07068 1.26622 21.9444 0.483074 -18.5001 1.04683 -0.546484 1.82182 -3.80902 -0.892219 -6.71948 0.993472 -0.621916 0.655506 -0.00644754 -0.0018443 -0.0114302 2.64253 0.566363 2.4162 17.6804 -0.765809 -4.59564 1.39394 -0.635138 0.899356 11.5701 -4.37284 -4.26189 0.622395 -0.856016 0.402182 12.1749 -4.62729 -4.46275 3.20814 0.514427 1.52547 28.5054 -10.4176 -9.59899 1.56545 -0.497974 0.68919 15.119 -6.60863 -5.36419 0.679943 -1.17582 0.444246 22.3574 -10.2899 -7.33317 3.47877 0.200518 0.597719 38.5185 -17.3919 -7.32448 1.28208 -0.53155 0.44672 16.8207 -8.29724 -6.72119 0.710288 -0.970167 0.4032 24.278 -12.6429 -8.95799 3.42483 -0.278904 -0.240415 46.1044 -19.8448 -2.10489 1.05787 -0.635999 0.156459 18.821 -10.0472 -7.0836 0.42815 -0.754232 0.287187 16.3775 -8.59182 -6.33315 -4.17848 -1.02486 0.046356 -100.629 -44.9347 -68.6471 1.27155 -17.465 -0.237699 139.374 66.5998 -128.267 0.529163 -17.3815 -1.19582 4.9351 25.6719 26.4437 -0.711591 -4.4863 4.0596 -0.49658 -3.65033 0.0820875 4.17848 -1.02486 0.046356 49.4202 -44.2537 59.8018 -1.27155 -17.465 -0.237699 27.8776 83.3857 -29.6921 -0.529163 -17.3815 -1.19582 -3.63426 21.6394 -24.121 0.711591 -4.4863 4.0596 1.17145 -9.16612 0.556795 
24.1102 16.0818 35.0117 58.4196 -65.5414 -114.9 5.32907e-015 5.99393 0.287273 -4.41555 -4.17592 -2.83571 3.55271e-015 6.65865 -0.856112 -9.06774 -8.11486 -6.00893 0 8.65624 -1.42685 -4.05101 -1.90766 0.848183 1.77636e-015 3.80999 -0.190247 15.6744 -35.5944 15.6515 -1.4963 7.5744 -1.52136 -36.1535 -0.313866 -2.20525 -5.47506 -0.905672 0.485692 56.7365 -2.12995 80.1148 -11.3069 -0.201091 0.618544 2.11628 -20.0382 5.72689 -9.61414 -0.254739 3.48553 -38.829 -14.7181 -2.59463 0.176263 -0.07068 1.26622 -0.516102 -3.66389 2.26665 -1.04683 -0.546484 1.82182 -0.727923 0.796059 -2.21397 -0.993472 -0.621916 0.655506 -0.815224 0.895876 -2.48549 -2.64253 0.566363 2.4162 -1.81921 -0.327351 -0.0797332 -1.39394 -0.635138 0.899356 -1.74014 -0.467652 0.249392 -0.622395 -0.856016 0.402182 -1.29276 -0.349872 0.192407 -3.20814 0.514427 1.52547 -14.9357 -4.67171 1.5209 -1.56545 -0.497974 0.68919 -10.679 -3.41333 1.20954 -0.679943 -1.17582 0.444246 -12.2158 -3.92198 1.33097 -3.47877 0.200518 0.597719 -28.5624 -10.1855 -1.89177 -1.28208 -0.53155 0.44672 -13.0342 -4.76709 1.85913 -0.710288 -0.970167 0.4032 -12.162 -4.43527 1.7685 -3.42483 -0.278904 -0.240415 -40.9674 -11.8335 -9.24956 -1.05787 -0.635999 0.156459 -12.1591 -4.76475 1.56262 -0.42815 -0.754232 0.287187 -12.032 -4.71302 1.55117 1.4963 7.5744 -1.52136 -1.96724 -2.80323 -1.54747 5.47506 -0.905672 0.485692 -32.3131 -28.8362 -50.4793 11.3069 -0.201091 0.618544 -5.90199 -12.6843 -19.8374 9.61414 -0.254739 3.48553 14.6117 3.54485 -8.59625 -0.176263 -0.07068 1.26622 21.9444 0.483086 -18.5001 1.04683 -0.546484 1.82182 -3.80902 -0.892214 -6.71948 0.993472 -0.621916 0.655506 -0.00645517 -0.00186292 -0.011424 2.64253 0.566363 2.4162 17.6805 -0.765623 -4.59566 1.39394 -0.635138 0.899356 11.5701 -4.37287 -4.26189 0.622395 -0.856016 0.402182 12.1749 -4.62729 -4.46275 3.20814 0.514427 1.52547 28.5054 -10.4176 -9.59895 1.56545 -0.497974 0.68919 15.119 -6.6085 -5.36434 0.679943 -1.17582 0.444246 22.3574 -10.2899 -7.33314 3.47877 0.200518 0.597719 38.5185 -17.3919 -7.32448 1.28208 -0.53155 0.44672 16.8207 -8.29726 -6.72117 0.710288 -0.970167 0.4032 24.278 -12.643 -8.95799 3.42483 -0.278904 -0.240415 46.1044 -19.8448 -2.10488 1.05787 -0.635999 0.156459 18.821 -10.0472 -7.08357 0.42815 -0.754232 0.287187 16.3775 -8.59182 -6.33314 -4.17848 -1.02486 0.046356 -101.845 -44.7676 -75.2067 1.27155 -17.465 -0.237699 138.367 67.0864 -127.273 0.529163 -17.3815 -1.19582 5.65791 25.6763 24.9085 -0.711591 -4.4863 4.0596 -0.300371 -2.20431 0.0533418 4.17848 -1.02486 0.046356 57.3274 -47.1192 66.5406 -1.27155 -17.465 -0.237699 31.1742 83.9548 -32.9925 -0.529163 -17.3815 -1.19582 -3.33581 21.7097 -24.4077 0.711591 -4.4863 4.0596 1.02021 -8.03082 0.476971 
23.9422 16.0211 35.0292 67.4671 -64.7683 -106.708 0 5.99393 0.287273 -3.39408 -5.71767 -2.83103 -1.77636e-015 6.65865 -0.856112 -7.12129 -11.2489 -6.04318 -1.77636e-015 8.65624 -1.42685 -4.21797 -0.853699 1.26519 0 3.80999 -0.190247 15.7092 -35.0663 15.593 -1.4963 7.5744 -1.52136 -35.2981 -0.300214 -2.12907 -5.47506 -0.905672 0.485692 57.1088 -1.4868 79.4897 -11.3069 -0.201091 0.618544 1.82553 -19.4146 5.42723 -9.61414 -0.254739 3.48553 -38.2273 -13.3875 -1.45588 0.176263 -0.07068 1.26622 -0.540193 -3.66154 2.26851 -1.04683 -0.546484 1.82182 -0.719007 0.785918 -2.18635 -0.993472 -0.621916 0.655506 -0.81153 0.891636 -2.47395 -2.64253 0.566363 2.4162 -1.81652 -0.317903 -0.0955913 -1.39394 -0.635138 0.899356 -1.72211 -0.46276 0.24687 -0.622395 -0.856016 0.402182 -1.25548 -0.339915 0.187331 -3.20814 0.514427 1.52547 -14.9236 -4.65955 1.52337 -1.56545 -0.497974 0.68919 -10.641 -3.40078 1.20635 -0.679943 -1.17582 0.444246 -12.1773 -3.90923 1.32812 -3.47877 0.200518 0.597719 -28.5396 -10.1847 -1.87915 -1.28208 -0.53155 0.44672 -13.0095 -4.75766 1.85663 -0.710288 -0.970167 0.4032 -12.1374 -4.42592 1.76588 -3.42483 -0.278904 -0.240415 -40.8934 -11.8271 -9.23052 -1.05787 -0.635999 0.156459 -12.0938 -4.73828 1.55692 -0.42815 -0.754232 0.287187 -11.9607 -4.68415 1.54487 1.4963 7.5744 -1.52136 -1.13148 -2.77649 -0.0320816 5.47506 -0.905672 0.485692 -34.3635 -26.2483 -51.039 11.3069 -0.201091 0.618544 -6.35611 -12.1603 -20.1563 9.61414 -0.254739 3.48553 15.5478 2.86268 -8.39983 -0.176263 -0.07068 1.26622 21.9444 0.483145 -18.5001 1.04683 -0.546484 1.82182 -3.80902 -0.892215 -6.71948 0.993472 -0.621916 0.655506 -0.00646811 -0.00188777 -0.0114112 2.64253 0.566363 2.4162 17.6805 -0.765625 -4.59568 1.39394 -0.635138 0.899356 11.5701 -4.37297 -4.26184 0.622395 -0.856016 0.402182 12.1749 -4.6273 -4.46274 3.20814 0.514427 1.52547 28.5054 -10.4176 -9.59894 1.56545 -0.497974 0.68919 15.119 -6.60849 -5.36434 0.679943 -1.17582 0.444246 22.3574 -10.2899 -7.33311 3.47877 0.200518 0.597719 38.5185 -17.3919 -7.32447 1.28208 -0.53155 0.44672 16.8207 -8.29725 -6.72117 0.710288 -0.970167 0.4032 24.278 -12.643 -8.95798 3.42483 -0.278904 -0.240415 46.1044 -19.8448 -2.10485 1.05787 -0.635999 0.156459 18.821 -10.0472 -7.08352 0.42815 -0.754232 0.287187 16.3775 -8.59182 -6.33312 -4.17848 -1.02486 0.046356 -102.021 -44.0144 -78.5636 1.27155 -17.465 -0.237699 136.415 67.9341 -125.344 0.529163 -17.3815 -1.19582 7.17126 26.5602 24.9406 -0.711591 -4.4863 4.0596 -0.316511 -2.32326 0.0558968 4.17848 -1.02486 0.046356 62.8281 -49.0041 71.1492 -1.27155 -17.465 -0.237699 35.6552 84.5586 -37.4367 -0.529163 -17.3815 -1.19582 -2.86093 20.8499 -24.8374 0.711591 -4.4863 4.0596 1.11509 -8.74486 0.52683 
23.7561 15.9721 35.0181 75.6341 -62.8909 -98.9475 1.77636e-015 5.99393 0.287273 -2.17256 -7.11958 -2.94318 0 6.65865 -0.856112 -4.76883 -14.1111 -6.23041 -3.55271e-015 8.65624 -1.42685 -4.5425 -0.0167342 1.90788 1.77636e-015 3.80999 -0.190247 15.6103 -34.474 15.6588 -1.4963 7.5744 -1.52136 -33.9294 -0.27814 -2.05938 -5.47506 -0.905672 0.485692 57.2974 -1.2937 79.1755 -11.3069 -0.201091 0.618544 1.9254 -19.1633 4.69395 -9.61414 -0.254739 3.48553 -37.755 -11.5002 0.453326 0.176263 -0.07068 1.26622 -0.565693 -3.65207 2.27028 -1.04683 -0.546484 1.82182 -0.710073 0.775775 -2.15871 -0.993472 -0.621916 0.655506 -0.807835 0.887402 -2.46241 -2.64253 0.566363 2.4162 -1.81383 -0.30844 -0.111449 -1.39394 -0.635138 0.899356 -1.70406 -0.457877 0.24436 -0.622395 -0.856016 0.402182 -1.2182 -0.329967 0.182246 -3.20814 0.514427 1.52547 -14.9114 -4.64737 1.5258 -1.56545 -0.497974 0.68919 -10.603 -3.38823 1.20318 -0.679943 -1.17582 0.444246 -12.1389 -3.89646 1.32523 -3.47877 0.200518 0.597719 -28.5169 -10.1839 -1.86654 -1.28208 -0.53155 0.44672 -12.9848 -4.74822 1.85411 -0.710288 -0.970167 0.4032 -12.1128 -4.41656 1.76324 -3.42483 -0.278904 -0.240415 -40.8194 -11.8208 -9.21149 -1.05787 -0.635999 0.156459 -12.0249 -4.7104 1.55089 -0.42815 -0.754232 0.287187 -11.8839 -4.6531 1.53809 1.4963 7.5744 -1.52136 -0.0690241 -2.74538 1.4197 5.47506 -0.905672 0.485692 -37.2257 -23.1436 -51.8795 11.3069 -0.201091 0.618544 -6.26214 -12.6922 -20.2035 9.61414 -0.254739 3.48553 16.4059 3.12493 -8.69929 -0.176263 -0.07068 1.26622 21.9445 0.483231 -18.5001 1.04683 -0.546484 1.82182 -3.80903 -0.892216 -6.7195 0.993472 -0.621916 0.655506 -0.00649249 -0.00195444 -0.0113837 2.64253 0.566363 2.4162 17.6805 -0.765628 -4.59568 1.39394 -0.635138 0.899356 11.5701 -4.37278 -4.26192 0.622395 -0.856016 0.402182 12.1748 -4.6273 -4.46275 3.20814 0.514427 1.52547 28.5053 -10.4177 -9.59889 1.56545 -0.497974 0.68919 15.119 -6.60849 -5.36432 0.679943 -1.17582 0.444246 22.3575 -10.2899 -7.33305 3.47877 0.200518 0.597719 38.5185 -17.3919 -7.32445 1.28208 -0.53155 0.44672 16.8207 -8.29727 -6.72113 0.710288 -0.970167 0.4032 24.278 -12.643 -8.95798 3.42483 -0.278904 -0.240415 46.1044 -19.8449 -2.10478 1.05787 -0.635999 0.156459 18.821 -10.0471 -7.08362 0.42815 -0.754232 0.287187 16.3775 -8.59184 -6.33308 -4.17848 -1.02486 0.046356 -100.95 -42.996 -80.8984 1.27155 -17.465 -0.237699 134.027 68.8803 -123.006 0.529163 -17.3815 -1.19582 9.02605 26.9697 24.7704 -0.711591 -4.4863 4.0596 -0.298857 -2.19325 0.0531298 4.17848 -1.02486 0.046356 69.0508 -50.8946 76.0444 -1.27155 -17.465 -0.237699 40.1539 85.0229 -41.886 -0.529163 -17.3815 -1.19582 -1.97939 20.589 -24.9145 0.711591 -4.4863 4.0596 1.05365 -8.28338 0.494405 
